:FULLY-SPECIFIED
:FORCE-ALL-JOINTS-BE-3DOF
:DEGREES
102
root -2.85467 16.5053 -36.2163 2.84133 0.32667 -2.41806
lfemur -21.0564 5.89461 -8.93281
ltibia 44.6298 0 0
lfoot -21.6691 -0.241274 0
ltoes -7.49106 0 0
rfemur -21.4848 -5.77448 13.972
rtibia 47.2766 0 0
rfoot -25.5345 1.37919 0
rtoes -6.7314 0 0
lowerback 8.40603 1.96462 -1.66075
upperback -3.4766 2.53925 1.23319
thorax -8.53674 1.36754 1.84042
lowerneck -2.54287 -3.86494 -6.64426
upperneck 5.35956 -5.21118 6.09642
head 2.562 -2.5773 3.01268
lclavicle -5.09704e-15 -4.54135e-15 0
lhumerus -26.5646 -4.19933 89.4955
lradius 25.0294 0 0
lwrist -30.4708 0 0
lhand -28.6558 30.2831 0
lfingers 7.12502 0 0
lthumb -2.01924 60.2532 0
rclavicle -5.09704e-15 -4.54135e-15 0
rhumerus -32.5654 3.01363 -80.5326
rradius 30.6961 0 0
rwrist 2.5079 0 0
rhand -20.2158 -27.2477 0
rfingers 7.12502 0 0
rthumb 6.13153 -57.1395 0
103
root -2.8523 16.504 -36.2136 2.88737 0.33956 -2.43241
lfemur -21.1181 5.88536 -8.92769
ltibia 44.6649 0 0
lfoot -21.695 -0.220337 0
ltoes -7.54754 0 0
rfemur -21.5311 -5.79528 13.9811
rtibia 47.2917 0 0
rfoot -25.5512 1.38697 0
rtoes -6.76462 0 0
lowerback 8.33772 1.96261 -1.67368
upperback -3.50011 2.53612 1.23524
thorax -8.52292 1.36706 1.85205
lowerneck -2.54743 -3.86801 -6.6367
upperneck 5.39849 -5.21695 6.09794
head 2.57612 -2.57996 3.01157
lclavicle -5.18743e-15 -4.71829e-15 0
lhumerus -26.5676 -4.19197 89.4925
lradius 25.0381 0 0
lwrist -30.4618 0 0
lhand -28.6425 30.3006 0
lfingers 7.12502 0 0
lthumb -2.00642 60.2708 0
rclavicle -5.18743e-15 -4.71829e-15 0
rhumerus -32.5727 2.98448 -80.5287
rradius 30.6922 0 0
rwrist 2.51391 0 0
rhand -20.2229 -27.2314 0
rfingers 7.12502 0 0
rthumb 6.12467 -57.1233 0
104
root -2.84996 16.5028 -36.211 2.93292 0.352077 -2.44665
lfemur -21.179 5.87576 -8.92254
ltibia 44.6994 0 0
lfoot -21.7206 -0.198601 0
ltoes -7.6051 0 0
rfemur -21.5769 -5.81586 13.9901
rtibia 47.3066 0 0
rfoot -25.5676 1.39513 0
rtoes -6.79754 0 0
lowerback 8.27037 1.96072 -1.68671
upperback -3.52333 2.5331 1.23726
thorax -8.50935 1.36663 1.86367
lowerneck -2.55244 -3.87103 -6.62919
upperneck 5.43723 -5.22262 6.09953
head 2.59026 -2.58255 3.01049
lclavicle -5.26664e-15 -4.8985e-15 0
lhumerus -26.5706 -4.18384 89.4893
lradius 25.0464 0 0
lwrist -30.4534 0 0
lhand -28.6292 30.3179 0
lfingers 7.12502 0 0
lthumb -1.99359 60.2882 0
rclavicle -5.26664e-15 -4.8985e-15 0
rhumerus -32.5798 2.95492 -80.5244
rradius 30.6879 0 0
rwrist 2.52034 0 0
rhand -20.2304 -27.2147 0
rfingers 7.12502 0 0
rthumb 6.11738 -57.1068 0
105
root -2.84767 16.5015 -36.2084 2.97789 0.364216 -2.46074
lfemur -21.2391 5.86594 -8.9174
ltibia 44.7334 0 0
lfoot -21.7458 -0.176228 0
ltoes -7.66343 0 0
rfemur -21.6224 -5.83621 13.9991
rtibia 47.3214 0 0
rfoot -25.5839 1.4036 0
rtoes -6.83011 0 0
lowerback 8.20408 1.95893 -1.69977
upperback -3.54622 2.5302 1.23925
thorax -8.49604 1.36626 1.87522
lowerneck -2.55786 -3.87399 -6.62175
upperneck 5.4757 -5.22817 6.10117
head 2.60438 -2.58509 3.00945
lclavicle -5.33544e-15 -5.08229e-15 0
lhumerus -26.5736 -4.17483 89.486
lradius 25.0543 0 0
lwrist -30.4454 0 0
lhand -28.6159 30.3347 0
lfingers 7.12502 0 0
lthumb -1.98078 60.3052 0
rclavicle -5.33544e-15 -5.08229e-15 0
rhumerus -32.5868 2.92505 -80.5198
rradius 30.6833 0 0
rwrist 2.52716 0 0
rhand -20.2383 -27.1977 0
rfingers 7.12502 0 0
rthumb 6.10979 -57.0901 0
